<?xml version="1.0" encoding="UTF-8" standalone="no"?>
<!DOCTYPE svg PUBLIC "-//W3C//DTD SVG 1.1//EN" "http://www.w3.org/Graphics/SVG/1.1/DTD/svg11.dtd">
<svg width="100%" height="100%" viewBox="0 0 409 2124" version="1.1" xmlns="http://www.w3.org/2000/svg" xmlns:xlink="http://www.w3.org/1999/xlink" xml:space="preserve" xmlns:serif="http://www.serif.com/" style="fill-rule:evenodd;clip-rule:evenodd;stroke-linejoin:round;stroke-miterlimit:2;">
    <g transform="matrix(0.29053,0,0,0.29053,-21.0371,-14.983)">
        <path d="M297.868,61.457C301.548,188.777 354.277,289.543 473.829,358.574C480.454,374.287 474.831,386.449 459.072,382.576L325.682,300.455C308.361,287.397 300.916,295.738 298.844,315.719L298.8,1603.9L491.601,1731.38L491.6,1837.39L298.8,1722.63L298.8,1775.8L491.6,1912.9L491.6,2012.21L298.8,1899.6L298.8,1951.7L491.6,2088.29L491.6,2198.03L298.8,2088.3L298.8,2221.64C290.933,2236.44 281.399,2236.4 270.207,2221.6L259.7,2088.29L75,2192.79L75,2071.07L259.7,1951.69L259.7,1899.6L75,2012.21L75,1904.77L259.7,1773.61L259.7,1724.12L75,1837.39L75.044,1724.82L259.714,1603.89L259.7,306.82C258.978,291.243 257.303,285.114 243.875,289.02L95.978,384.257C76.924,387.525 62.963,377.757 80.29,357.237C175.638,290.618 263.386,176.743 270.071,59.14C270.694,48.19 297.516,49.258 297.868,61.457Z"/>
    </g>
</svg>
