<?xml version="1.0" encoding="UTF-8" standalone="no"?>
<!-- Generator: Adobe Illustrator 19.2.1, SVG Export Plug-In . SVG Version: 6.00 Build 0)  -->

<svg
   version="1.1"
   id="layer"
   x="0px"
   y="0px"
   viewBox="0 0 676 499.91"
   xml:space="preserve"
   sodipodi:docname="DQ Grill &amp; Chill 2001 Unused.svg"
   width="676"
   height="499.91"
   inkscape:version="1.2.2 (b0a8486, 2022-12-01)"
   xmlns:inkscape="http://www.inkscape.org/namespaces/inkscape"
   xmlns:sodipodi="http://sodipodi.sourceforge.net/DTD/sodipodi-0.dtd"
   xmlns="http://www.w3.org/2000/svg"
   xmlns:svg="http://www.w3.org/2000/svg"><defs
   id="defs229"><inkscape:path-effect
     effect="perspective-envelope"
     up_left_point="158.16,162.51127"
     up_right_point="474.76,162.51127"
     down_left_point="148.16,340.58932"
     down_right_point="464.7616,340.58932"
     id="path-effect1400"
     is_visible="true"
     lpeversion="1"
     deform_type="perspective"
     horizontal_mirror="false"
     vertical_mirror="false"
     overflow_perspective="false" /><inkscape:path-effect
     effect="perspective-envelope"
     up_left_point="178.14706,162.89596"
     up_right_point="321.34036,162.89596"
     down_left_point="148.15,305.24473"
     down_right_point="291.34,305.24473"
     id="path-effect747"
     is_visible="true"
     lpeversion="1"
     deform_type="perspective"
     horizontal_mirror="false"
     vertical_mirror="false"
     overflow_perspective="false" /><inkscape:path-effect
     effect="perspective-envelope"
     up_left_point="327.84024,162.51127"
     up_right_point="471.05294,162.51127"
     down_left_point="297.84,340.59"
     down_right_point="441.05,340.58872"
     id="path-effect745"
     is_visible="true"
     lpeversion="1"
     deform_type="perspective"
     horizontal_mirror="false"
     vertical_mirror="false"
     overflow_perspective="false" /></defs><sodipodi:namedview
   id="namedview227"
   pagecolor="#ffffff"
   bordercolor="#111111"
   borderopacity="1"
   inkscape:showpageshadow="0"
   inkscape:pageopacity="0"
   inkscape:pagecheckerboard="1"
   inkscape:deskcolor="#d1d1d1"
   showgrid="false"
   inkscape:zoom="0.52147239"
   inkscape:cx="616.52353"
   inkscape:cy="326"
   inkscape:window-width="1440"
   inkscape:window-height="872"
   inkscape:window-x="0"
   inkscape:window-y="28"
   inkscape:window-maximized="0"
   inkscape:current-layer="layer" />
<style
   type="text/css"
   id="style182">
	.st0{fill:#EF3D42;}
	.st1{fill:#FFFFFF;}
	.st2{fill:#FAAB54;}
	.st3{fill:#007AC2;}
</style>





















<g
   id="g1438"
   transform="translate(17.9,-71.6899)"><path
     class="st0"
     d="m 546.5,217.6 c -26.1,-26.9 -65,-77.3 -121.3,-114.5 -5.3,-3.5 -10.8,-6.8 -16.4,-9.8 -26.6,-15.5 -62.5,-21.9 -88.2,-21.6 -25.7,-0.3 -61.5,6 -88.2,21.6 -5.6,3 -11.1,6.3 -16.4,9.8 -56.4,37.2 -95.3,87.6 -121.3,114.5 -10.3,10.6 -24.5,21.9 -24.5,21.9 0,0 14.2,11.4 24.5,22 26.1,26.9 65,77.3 121.3,114.5 5.3,3.5 10.8,6.8 16.4,9.8 26.6,15.5 62.4,21.9 88.2,21.6 25.7,0.3 61.5,-6 88.2,-21.6 5.6,-3 11.1,-6.3 16.4,-9.8 56.4,-37.2 95.3,-87.6 121.3,-114.5 10.3,-10.6 24.5,-22 24.5,-22 0,0 -14.2,-11.4 -24.5,-21.9"
     id="path184" /><path
     class="st2"
     d="m 539.8,173.7 c -56.2,-39.6 -144.7,-68.8 -216.7,-67.1 -30.2,0.7 -58.7,5.6 -84.4,13.9 36.1,-23.4 85.2,-38.3 139.4,-39.5 55.6,-1.3 120.7,15.5 173.4,41.4 z"
     id="path190" /><path
     class="st3"
     d="m 101.4,305.3 c 56.2,39.6 144.7,68.8 216.7,67.1 30.2,-0.7 58.7,-5.6 84.3,-13.9 C 366.3,381.8 317.2,396.8 263,398 207.4,399.3 142.3,382.5 89.6,356.6 Z"
     id="path192" /><path
     class="st2"
     d="m 19.1,421.8 c -20.4,0 -37,16.9 -37,37.8 v 74.2 c 0,20.8 16.6,37.8 37,37.8 h 602 c 20.4,0 37,-17 37,-37.8 v -74.2 c 0,-20.9 -16.6,-37.8 -37,-37.8 z"
     id="path194" /><path
     d="m 646.2,533.8 c 0,14.1 -11.3,25.6 -25.1,25.6 H 19.1 C 5.3,559.4 -6,547.9 -6,533.8 v -74.3 c 0,-14.1 11.3,-25.6 25.1,-25.6 h 602 c 13.8,0 25.1,11.6 25.1,25.6 z"
     id="path196" /><path
     class="st0"
     d="m 317.5,523.2 c -2.3,1.8 -7.6,5.5 -16.1,5.5 -7.1,0 -11.1,-3.7 -11.3,-9 -0.3,-7.6 9.3,-11.2 13.1,-12.8 z m 13.4,15.4 c 0.7,0.8 1.2,1.2 1.9,1.2 0.7,0 0.9,-0.2 1.5,-0.5 l 8.3,-4.9 c 0.6,-0.4 1.1,-0.7 1.1,-1.3 0,-0.3 -0.2,-0.7 -0.6,-1.1 l -7.4,-8.1 c 4.1,-4.5 11.6,-15.9 11.3,-20.8 0,-0.6 -0.4,-0.9 -1.6,-1.2 l -9.6,-1.9 c -0.5,-0.1 -0.9,-0.2 -1.5,-0.2 -2.4,0 -2.2,7.2 -7.6,13.9 L 316,501 c 6.6,-3.1 21.7,-9.7 21.2,-21.2 -0.4,-8.1 -7.8,-13.6 -21.8,-13.6 -16.3,0 -27.9,6.6 -27.4,18 0.3,7 6.6,13.1 8.4,15.3 -6.3,2.7 -24.2,9 -23.3,24 0.7,12 11.5,16.5 25.4,16.5 14.8,0 22.3,-4.7 26.8,-7.6 z m -21.5,-45.1 c -1.2,-1.5 -6,-5.9 -6.2,-9.5 -0.2,-5 4.6,-8.3 11,-8.3 5.2,0 7.2,2.4 7.4,5.9 0.2,6.3 -7.7,10 -12.2,11.9"
     id="path200" /><path
     class="st1"
     d="m 92.9,530.8 c -1,4.5 -18.7,9.1 -32.1,9.1 -19.9,0 -32.2,-8.5 -33.1,-27.9 -1.1,-26.8 14.3,-58.5 53.1,-58.5 12.6,0 27.2,4.9 27.3,7.6 0,0.4 -0.2,0.9 -0.5,1.3 l -6.6,7.9 c -1,1.1 -1.5,1.2 -2.1,1.2 -1.8,0 -7.3,-5.1 -19,-5.1 -24,0 -32.1,27.4 -31.3,46 0.4,10.2 4.8,14.4 14.8,14.4 6.8,0 10.4,-1.6 12.1,-2.2 l 4.1,-18.4 H 68.4 c -1.5,0 -2,-0.6 -2,-1.3 0,-0.5 0.1,-1 0.2,-1.6 0.1,-0.6 1.6,-7.1 2,-8.4 0.3,-1.4 0.9,-1.7 2.7,-1.7 H 99 c 1.5,0 2,0.6 2.1,1.3 0,0.5 -0.1,1.1 -0.2,1.6 -0.2,0.7 -8,34.7 -8,34.7"
     id="path202" /><path
     class="st1"
     d="m 123.4,536.5 c -0.3,1.3 -0.6,1.4 -2.1,1.4 H 107 c -1.4,0 -2.4,-0.8 -1.9,-2.5 l 8.9,-36.2 c 0.6,-3 1.6,-6 1.4,-9.9 -0.2,-3.6 -1.6,-5.3 -1.7,-7.4 0,-0.8 1,-1.1 1.8,-1.3 0,0 11.7,-3.6 12.2,-3.7 0.5,-0.1 1,-0.4 1.5,-0.4 1.7,0 3.3,5.4 3.6,12.1 4,-3.6 11.5,-12.1 23.4,-12.1 2.3,0 5.2,0.5 5.3,1.6 0,0.4 -0.1,0.6 -0.3,1 0,0 -5.8,11.9 -6,12.1 -0.1,0.3 -0.6,0.6 -0.9,0.6 -1.1,0 -2.8,-0.8 -5.2,-0.8 -11.9,0 -18.2,13.7 -20.1,21.7 0,0 -5.3,22.5 -5.6,23.8"
     id="path204" /><path
     class="st1"
     d="m 166.6,480 c 0.2,-1.3 0.7,-1.5 2.2,-1.5 h 15 c 2.1,0 2.2,1 1.8,2.6 -0.2,0.9 -12.4,54 -12.7,55.3 -0.3,1.3 -0.6,1.4 -2.1,1.4 h -14.4 c -1.4,0 -2.4,-0.8 -2,-2.5 z"
     id="path206" /><path
     class="st1"
     d="m 180.6,470.8 c -6.9,0 -12.8,-4.3 -13.1,-10 -0.3,-6 6,-9.8 12.2,-9.8 6.3,0 13,3.9 13.2,9.8 0.3,5.6 -5.4,10 -12.3,10"
     id="path208" /><path
     class="st1"
     d="m 220.8,535.3 c 0.3,1.4 -0.1,1.9 -0.7,2.2 -2.5,1.4 -9.6,2.5 -14.5,2.5 -9,0 -14.3,-2.3 -15.4,-10.1 -0.5,-3.8 0.2,-8.5 1.3,-12.7 L 206,455.6 c 0.3,-1.2 0.4,-1.7 2.7,-2.1 0,0 15.1,-2.5 15.6,-2.5 0.6,0 0.8,0.3 0.8,1.2 0,0.7 -0.2,1.7 -0.3,2.4 L 210.1,517 c -0.7,2.9 -1.6,5.9 -1.5,7.5 0.1,1.7 1.3,2.4 3.7,2.4 2.6,0 4.9,-0.8 5.7,-0.8 0.4,0 0.9,0.1 1.1,0.8 -0.2,0.1 1.4,7 1.7,8.4"
     id="path210" /><path
     class="st1"
     d="m 259.7,535.3 c 0.3,1.4 -0.1,1.9 -0.7,2.2 -2.5,1.4 -9.6,2.5 -14.5,2.5 -8.9,0 -14.3,-2.3 -15.3,-10.1 -0.5,-3.8 0.2,-8.5 1.3,-12.7 L 245,455.6 c 0.3,-1.2 0.4,-1.7 2.7,-2.1 0,0 15.1,-2.5 15.6,-2.5 0.6,0 0.8,0.3 0.8,1.2 0,0.7 -0.2,1.7 -0.4,2.4 L 248.9,517 c -0.7,2.9 -1.6,5.9 -1.5,7.5 0.1,1.7 1.4,2.4 3.7,2.4 2.6,0 4.9,-0.8 5.6,-0.8 0.5,0 1,0.1 1.1,0.8 0,0.1 1.5,7 1.9,8.4"
     id="path212" /><path
     class="st1"
     d="m 419.3,531.1 c 0.4,0.7 0.9,1.7 -0.3,2.6 -3.4,2.7 -16.7,6.3 -25.1,6.3 -19.3,0 -31.3,-8.1 -32.2,-28.2 -1.3,-29.9 14.5,-58.1 49.9,-58.1 11.9,0 23.7,5.4 23.8,8.3 0,0.5 -0.3,0.7 -0.7,1.2 l -6.7,8.3 c -0.6,0.6 -1,0.7 -1.5,0.7 -3.4,0 -7.3,-5.5 -15.4,-5.5 -20,0 -29.4,25.5 -28.6,45.2 0.5,11.8 5,15.3 14.7,15.3 8.8,0 14.1,-4.5 16.8,-4.5 0.5,0 0.6,0.1 1.1,0.8 0,-0.1 4,7.2 4.2,7.6"
     id="path214" /><path
     class="st1"
     d="m 471.3,537.9 c -1.4,0 -2.4,-0.8 -2,-2.5 l 8.5,-34.2 c 0.5,-2.4 1.2,-4.8 1.1,-7.3 -0.1,-2.8 -2.5,-4.7 -7.1,-4.7 -11.1,0 -16.8,14.9 -18.7,23.5 l -5.6,23.8 c -0.3,1.3 -0.6,1.4 -2.1,1.4 h -14.3 c -1.4,0 -2.4,-0.8 -2,-2.5 l 18.5,-79.9 c 0.3,-1.2 0.4,-1.7 2.7,-2.1 0,0 15.3,-2.5 15.8,-2.5 0.6,0 0.8,0.4 0.8,1.3 0,0.7 -0.2,1.5 -0.4,2.3 l -7.6,31.6 0.3,0.3 c 3.1,-3 10.5,-9.9 22.5,-9.9 10.5,0 16.2,4.3 16.6,12.6 0.1,3.1 -0.5,6.4 -1.1,9.4 l -9.5,38 c -0.3,1.3 -0.5,1.4 -2.1,1.4 z"
     id="path216" /><path
     class="st1"
     d="m 568.8,535.3 c 0.3,1.4 -0.1,1.9 -0.7,2.2 -2.5,1.4 -9.6,2.5 -14.5,2.5 -9,0 -14.3,-2.3 -15.4,-10.1 -0.5,-3.8 0.3,-8.5 1.3,-12.7 L 554,455.6 c 0.3,-1.2 0.4,-1.7 2.7,-2.1 0,0 15.2,-2.5 15.6,-2.5 0.6,0 0.8,0.3 0.8,1.2 0,0.7 -0.3,1.7 -0.4,2.4 L 558,517 c -0.7,2.9 -1.6,5.9 -1.5,7.5 0.1,1.7 1.3,2.4 3.6,2.4 2.6,0 4.9,-0.8 5.7,-0.8 0.4,0 0.9,0.1 1.1,0.8 0,0.1 1.6,7 1.9,8.4"
     id="path218" /><path
     class="st1"
     d="m 607.7,535.3 c 0.3,1.5 -0.1,1.9 -0.7,2.2 -2.5,1.4 -9.6,2.5 -14.5,2.5 -9,0 -14.3,-2.3 -15.4,-10.1 -0.5,-3.8 0.3,-8.5 1.3,-12.7 l 14.5,-61.6 c 0.2,-1.2 0.4,-1.7 2.7,-2.1 0,0 15.2,-2.5 15.6,-2.5 0.6,0 0.8,0.3 0.8,1.2 0,0.7 -0.2,1.7 -0.4,2.4 L 596.9,517 c -0.7,2.9 -1.6,5.9 -1.5,7.5 0.1,1.7 1.3,2.4 3.6,2.4 2.6,0 4.9,-0.8 5.7,-0.8 0.4,0 0.9,0.1 1.1,0.8 0,0.1 1.5,6.9 1.9,8.4"
     id="path220" /><path
     class="st1"
     d="m 514.6,480 c 0.2,-1.3 0.7,-1.5 2.2,-1.5 h 14.9 c 2.1,0 2.2,1 1.8,2.6 -0.2,0.9 -12.4,54 -12.7,55.3 -0.3,1.3 -0.6,1.4 -2.1,1.4 h -14.4 c -1.4,0 -2.4,-0.8 -2,-2.5 z"
     id="path222" /><path
     class="st1"
     d="m 528.5,470.8 c -6.9,0 -12.8,-4.3 -13.1,-10 -0.3,-6 6.1,-9.8 12.2,-9.8 6.3,0 12.9,3.9 13.2,9.8 0.3,5.6 -5.3,10 -12.3,10"
     id="path224" /><path
     inkscape:connector-curvature="0"
     id="path3482"
     style="fill:#ffffff;fill-opacity:1;fill-rule:nonzero;stroke:none;stroke-width:1.69468"
     d="m 184.68951,154.14438 c 0,0 46.23398,0.13202 98.71578,0 51.53289,-0.19302 43.15001,36.8106 43.07951,37.07477 -0.9164,13.93977 -18.87561,74.86981 -18.87561,74.86981 0,0 -14.44555,40.45698 -63.43676,40.45698 -49.07246,0 -100.14032,-0.0611 -100.14032,-0.0611 l 40.65741,-152.34051 m 21.49619,131.87846 h 22.28078 c 18.57243,0 26.24289,-19.22269 26.24289,-19.22269 l 19.21465,-72.71586 c 0,0 2.82319,-17.65845 -14.27976,-20.00545 l -23.63312,0.19303" /><path
     inkscape:connector-curvature="0"
     id="path3484"
     style="fill:#ffffff;fill-opacity:1;fill-rule:nonzero;stroke:none;stroke-width:1.69468"
     d="m 477.08998,266.82462 16.58157,-75.58131 c 0,0 5.18911,-19.03008 -14.61788,-30.04378 -18.77104,-10.42444 -53.24068,-9.58112 -53.24068,-9.58112 0,0 -33.34177,-0.65026 -54.69902,8.53466 -24.30103,8.99189 -30.54796,31.87288 -30.54796,31.87288 l -16.77193,75.2567 c 0,0 -4.003,20.71652 10.83922,30.35837 14.91686,9.58083 36.36662,9.25553 36.36662,9.25553 l -3.5579,15.83952 c 0,0 -1.99337,7.42699 3.32047,13.93949 5.38852,6.45155 18.62917,5.53705 18.62917,5.53705 l 18.23715,-1.6e-4 7.8599,-34.99109 c 0,0 19.61694,-0.57927 38.38262,-9.58117 18.7634,-8.99176 23.20493,-30.75459 23.20493,-30.75459 m -82.53191,-75.25602 c 0,0 4.27629,-18.766 26.95362,-18.76602 21.94226,0.0611 17.83784,17.79057 17.83784,17.79057 l -17.21258,76.62799 c 0,0 -3.72483,18.57264 -25.93274,18.24767 -22.22163,-0.26403 -18.62177,-18.05438 -18.62177,-18.05438 l 16.98926,-75.90677" /></g></svg>
