<?xml version="1.0" encoding="UTF-8" standalone="no"?>
<!DOCTYPE svg PUBLIC "-//W3C//DTD SVG 1.1//EN" "http://www.w3.org/Graphics/SVG/1.1/DTD/svg11.dtd">
<svg width="100%" height="100%" viewBox="0 0 600 450" version="1.1" xmlns="http://www.w3.org/2000/svg" xmlns:xlink="http://www.w3.org/1999/xlink" xml:space="preserve" xmlns:serif="http://www.serif.com/" style="fill-rule:evenodd;clip-rule:evenodd;stroke-linejoin:round;stroke-miterlimit:2;">
    <g transform="matrix(0.454171,0,0,0.454171,-385.58,-255.819)">
        <path d="M852.777,1399.5C854.436,1228.82 856.128,1058.13 857.852,887.428C858.352,842.803 860.727,798.178 862.227,753.512L862.227,739.512C862.227,735.345 862.227,731.47 862.477,727.512C863.31,719.803 866.643,715.595 872.685,714.47C878.727,713.345 881.018,715.637 884.685,724.762C885.393,726.512 886.31,728.178 887.018,729.595C903.185,726.803 918.81,723.928 934.477,721.262C988.643,712.928 1043.31,711.762 1097.93,713.637C1150.56,715.688 1202.91,722.296 1254.39,733.387C1268.1,736.262 1281.81,738.97 1295.43,742.22C1324.89,748.551 1352.35,761.983 1375.43,781.345C1383.13,787.734 1389.72,795.35 1394.93,803.887C1415.86,838.777 1440.16,871.531 1467.48,901.678C1474.56,909.622 1482.25,917.005 1490.48,923.762C1510.02,939.803 1528.39,957.47 1550.43,970.262C1557.76,974.804 1565.54,978.575 1573.64,981.512C1591.37,987.408 1609.74,991.198 1628.35,992.803C1680.14,996.97 1731.85,1002.93 1783.85,1004.05C1798.48,1004.35 1813.02,1004.55 1828.06,999.512C1831.81,988.262 1829.48,977.428 1825.6,966.72C1821.1,954.22 1815.81,941.72 1812.1,929.22C1809.85,920.902 1808.65,912.336 1808.52,903.72C1807.87,889.418 1814.92,875.811 1826.98,868.095C1840.22,859.061 1855.18,852.861 1870.93,849.887C1897.84,844.692 1925.37,843.61 1952.6,846.678C1994.48,850.095 2035.94,857.376 2076.48,868.428C2090.56,872.595 2104.27,877.595 2118.14,882.303C2130.64,886.47 2143.35,890.637 2155.64,895.303C2159.97,897.253 2164.15,899.523 2168.14,902.095C2166.94,905.538 2165.33,908.825 2163.35,911.887C2151.56,925.345 2151.27,941.053 2154.81,957.137C2156.52,964.928 2158.98,972.595 2156.23,980.387C2150.43,985.845 2143.73,984.887 2137.06,984.553C2119.52,983.262 2101.6,986.303 2081.48,980.678C2094.98,974.512 2106.48,978.387 2117.48,975.887C2130.56,961.928 2131.1,951.22 2119.31,937.97C2112.5,930.652 2103.87,925.262 2094.31,922.345C2073.9,916.12 2052.82,912.344 2031.52,911.095C2002.85,908.553 1974.23,911.803 1945.77,915.262C1936.59,916.637 1927.64,919.229 1919.14,922.97C1909.21,927.21 1900.89,934.51 1895.39,943.803C1889.68,952.845 1887.56,962.137 1892.31,972.178C1897.06,982.22 1901.31,991.428 1906.1,1000.93C1907.89,1004.47 1910.6,1007.55 1912.73,1010.93C1920.6,1023.43 1919.68,1031.05 1908.93,1040.55C1902.52,1046.22 1895.89,1051.72 1889.68,1057.01C1889.68,1066.14 1894.64,1071.76 1898.68,1077.85C1901.88,1082.09 1904.76,1086.56 1907.31,1091.22C1911.1,1099.01 1907.31,1105.72 1898.23,1106.97C1894.26,1107.5 1890.26,1107.63 1886.27,1107.35C1853.65,1105.53 1820.97,1105.53 1788.35,1107.35C1765.72,1108.59 1743.29,1112.24 1721.43,1118.22C1716.95,1119.42 1712.58,1121.04 1708.39,1123.05C1694.77,1129.55 1688.48,1140.22 1690.77,1155.47C1691.56,1160.76 1692.48,1166.01 1693.23,1171.26C1694.49,1178.09 1690.51,1184.89 1683.93,1187.14C1661.48,1197.39 1638.6,1196.55 1615.73,1189.05C1612.06,1187.58 1609.08,1184.76 1607.39,1181.18C1606.35,1178.89 1608.68,1175.1 1609.85,1170.68C1606.6,1169.51 1603.18,1168.01 1599.6,1167.05C1594.48,1165.64 1589.23,1164.72 1584.14,1163.26C1581.54,1162.27 1579.02,1161.07 1576.6,1159.68L1580.98,1147.18C1567.09,1145.91 1553.09,1146.34 1539.31,1148.47C1519.56,1151.51 1499.93,1155.35 1480.39,1159.47C1467.07,1162.5 1454.95,1169.42 1445.56,1179.35C1451.56,1186.35 1459.1,1188.68 1466.39,1191.51C1474.43,1194.68 1482.68,1197.47 1490.52,1201.05C1494.07,1202.77 1497.18,1205.26 1499.64,1208.35C1500.21,1210.59 1499.6,1212.98 1498.02,1214.68C1493.68,1216.3 1489.14,1217.28 1484.52,1217.6C1465.86,1218.7 1447.14,1217.39 1428.81,1213.72C1408.52,1209.93 1388.27,1205.8 1368.06,1201.6C1340.8,1195.23 1314.08,1186.74 1288.14,1176.22C1281.32,1173.56 1274.8,1170.18 1268.68,1166.14C1255.89,1158.59 1246.82,1146.03 1243.68,1131.51C1242.1,1123.68 1239.18,1116.14 1237.68,1108.3C1236.02,1098.23 1229.52,1089.58 1220.31,1085.18C1212.19,1080.66 1203.42,1077.41 1194.31,1075.55C1165.14,1071.1 1136.23,1067.72 1107.1,1064.39C1099.13,1063.75 1091.12,1063.75 1083.14,1064.39C1033.87,1066.69 984.602,1069.11 935.352,1071.64C922.102,1072.35 908.893,1073.72 894.852,1074.89C894.086,1079.66 893.571,1084.47 893.31,1089.3C893.31,1191.06 893.401,1292.81 893.583,1394.56C889.383,1395.49 885.167,1396.27 880.918,1396.65C879.888,1396.75 878.824,1396.78 877.738,1396.78C878.02,1367.91 878.313,1339.04 878.643,1310.18C879.31,1250.26 880.268,1190.3 880.935,1130.39C880.935,1126.76 883.352,1122.05 877.852,1119.64C875.476,1136.5 873.606,1280.33 873.46,1396.66C867.934,1396.39 862.172,1395.93 857.382,1397.77C856.361,1398.16 854.782,1398.76 852.777,1399.5ZM1473.01,932.74C1486.27,950.178 1486.29,950.183 1497.35,952.637C1490.73,944.37 1482.43,937.591 1473.01,932.74C1472.99,932.706 1472.96,932.671 1472.93,932.637L1472.89,932.678C1472.93,932.699 1472.97,932.719 1473.01,932.74ZM1844.73,986.32L1844.73,977.72C1840.99,982.218 1841.31,984.624 1844.73,986.32L1844.73,987.012L1844.64,987.137C1844.9,987.291 1845.14,987.447 1845.37,987.606L1847.1,999.93C1846.99,1000.18 1846.88,1000.43 1846.77,1000.68C1846.98,1000.71 1847.19,1000.74 1847.39,1000.78C1849.31,1003.28 1851.2,1005.8 1853.09,1008.32C1853.13,1008.8 1853.16,1009.27 1853.18,1009.76L1853.73,1011.25C1853.6,1013.82 1853.81,1016.25 1856.14,1017.9L1856.56,1019.05C1856.81,1019.36 1857.06,1019.66 1857.31,1019.96C1857.28,1026.52 1859.93,1032.83 1864.66,1037.4C1864.62,1037.74 1864.58,1038.08 1864.52,1038.43C1864.83,1038.56 1865.12,1038.7 1865.38,1038.84L1866.27,1048.77C1866.2,1048.89 1866.13,1049.02 1866.06,1049.14C1866.14,1049.1 1866.21,1049.06 1866.29,1049.03L1866.31,1049.26L1877.48,1057.97C1874.26,1050.27 1872.72,1045.95 1866.29,1049.03L1866.27,1048.77C1868.45,1044.95 1870.42,1041.43 1865.38,1038.84L1865.31,1038.01C1865.09,1037.81 1864.87,1037.61 1864.66,1037.4C1865.41,1030.28 1861.51,1025.09 1857.31,1019.96C1857.31,1019.51 1857.32,1019.05 1857.35,1018.6C1856.89,1018.38 1856.49,1018.15 1856.14,1017.9L1853.73,1011.25C1853.76,1010.62 1853.81,1009.98 1853.85,1009.35C1853.6,1009 1853.34,1008.66 1853.09,1008.32C1852.76,1004.69 1851.69,1001.63 1847.39,1000.78C1847.32,1000.69 1847.26,1000.6 1847.18,1000.51L1847.1,999.93C1849.16,995.237 1850.18,990.921 1845.37,987.606L1845.23,986.553C1845.05,986.477 1844.89,986.399 1844.73,986.32ZM1416.86,865.77C1416.55,863.429 1415.91,861.14 1414.98,858.97C1405.75,844.331 1396.38,829.789 1386.85,815.345C1379.63,804.041 1370.07,794.42 1358.81,787.137C1334.48,771.762 1308.81,759.178 1280.31,753.803C1262.68,750.387 1244.85,748.137 1227.18,744.97C1183.39,736.471 1139.01,731.345 1094.43,729.637C1071.14,729.095 1047.81,728.387 1024.52,728.845C985.898,729.159 947.361,732.517 909.268,738.887C908.685,738.887 908.352,740.428 907.852,741.303L918.602,743.762C914.435,746.97 910.893,748.428 909.268,750.97C907.643,753.512 909.685,758.095 908.227,759.095C900.268,764.47 899.893,772.095 900.31,780.303C902.06,834.845 902.81,889.428 909.477,943.72C912.56,968.72 916.227,993.72 924.852,1017.8C927.268,1024.47 930.435,1029.55 937.81,1031.6C946.768,1034.1 955.518,1037.26 964.31,1040.26C967.56,1041.39 970.685,1042.89 977.435,1045.68C957.143,1048.89 940.852,1051.68 924.477,1054.01C917.227,1055.05 909.893,1055.35 902.56,1055.64C897.2,1056.6 891.796,1053.96 889.268,1049.14L889.268,1028.93C888.602,990.303 887.81,951.72 887.185,913.095C886.324,859.845 885.532,806.581 884.81,753.303C884.81,749.928 885.06,746.678 882.185,744.262L889.185,745.512L889.185,744.22L882.102,744.22L875.518,748.387C876.018,771.887 876.893,795.178 876.935,818.428C876.935,892.428 876.643,966.428 876.602,1040.43C876.602,1047.6 874.81,1055.05 879.31,1063.18C885.435,1062.35 891.81,1061.51 898.352,1060.51C902.268,1059.89 906.143,1058.55 910.06,1058.3C930.671,1056.97 951.296,1055.79 971.935,1054.76C1001.89,1053.26 1031.89,1052.76 1061.81,1050.6C1106.77,1047.18 1150.98,1053.05 1195.14,1060.1C1205.73,1061.67 1215.9,1065.3 1225.1,1070.76C1237.67,1077.44 1246.39,1089.66 1248.6,1103.72C1249.81,1111.6 1251.68,1119.39 1253.43,1127.18C1256.02,1141.81 1266.23,1153.98 1280.17,1159.07C1280.14,1159.19 1280.1,1159.31 1280.06,1159.43C1280.2,1159.35 1280.35,1159.27 1280.49,1159.19C1282.74,1162.23 1286.92,1163.09 1290.16,1161.29C1290.17,1161.29 1290.18,1161.3 1290.18,1161.3C1290.53,1161.59 1290.87,1161.89 1291.19,1162.2L1292.02,1165.05C1292.31,1164.68 1292.89,1164.1 1292.85,1164.01C1292.34,1163.37 1291.78,1162.77 1291.19,1162.2L1290.81,1160.89C1290.6,1161.03 1290.38,1161.17 1290.16,1161.29C1287.2,1159.21 1284.23,1157.29 1280.49,1159.19C1280.49,1159.19 1280.48,1159.18 1280.48,1159.18C1280.37,1159.14 1280.27,1159.11 1280.17,1159.07C1281.6,1153.99 1277,1152.59 1274.18,1150.6C1266.55,1145.06 1261.59,1136.55 1260.52,1127.18C1257.85,1110.18 1256.02,1093.01 1248.02,1077.68C1259.39,1055.3 1269.68,1033.64 1281.35,1012.72C1301.64,975.97 1319.81,938.22 1336.81,899.887C1348.71,873.139 1358.79,845.618 1366.98,817.512C1367.91,815.41 1369.13,813.447 1370.6,811.678C1378.39,814.928 1381.35,821.095 1385.18,826.428C1393.52,837.762 1401.43,849.178 1409.85,860.345C1411.95,862.446 1414.3,864.269 1416.86,865.77C1416.89,865.975 1416.91,866.181 1416.93,866.387C1417.11,866.451 1417.28,866.508 1417.46,866.561C1418,868.897 1418.75,871.181 1419.68,873.387C1429.64,891.762 1444.27,906.47 1457.93,921.928C1459.18,923.303 1461.35,926.428 1464.23,921.928C1449.73,903.97 1435.06,885.845 1420.43,867.762C1419.83,867.046 1418.57,866.883 1417.46,866.561C1417.43,866.392 1417.39,866.223 1417.35,866.053C1417.19,865.96 1417.02,865.866 1416.86,865.77ZM1356.56,1186.67C1356.55,1186.04 1356.48,1185.29 1356.14,1185.22C1350.85,1183.26 1345.48,1181.39 1337.89,1178.72C1342.38,1184.34 1349.41,1187.33 1356.56,1186.67C1356.56,1186.82 1356.56,1186.97 1356.56,1187.1C1356.77,1187.02 1356.99,1186.96 1357.2,1186.89C1362.24,1191.56 1368.01,1190.85 1373.91,1189.28C1374.03,1189.35 1374.15,1189.43 1374.27,1189.51L1374.06,1189.47C1374.68,1189.65 1375.32,1189.79 1375.96,1189.91C1377.88,1191.21 1379.88,1192.4 1381.93,1193.47C1384.65,1194.49 1387.44,1195.33 1390.27,1195.97L1401.06,1196.6L1401.06,1195.85L1389.98,1195.85C1386.79,1190.33 1381.11,1190.87 1375.96,1189.91C1375.55,1189.63 1375.13,1189.35 1374.73,1189.05C1374.45,1189.13 1374.18,1189.2 1373.91,1189.28C1368.95,1186.09 1362.85,1185.22 1357.2,1186.89C1357.12,1186.81 1357.03,1186.72 1356.93,1186.64C1356.81,1186.65 1356.68,1186.66 1356.56,1186.67ZM1826.45,920.536L1825.64,911.803C1830.59,916.317 1834.74,921.644 1837.89,927.553C1841.77,933.762 1845.81,940.053 1849.93,945.928C1854.06,951.803 1857.39,956.97 1861.48,962.178C1865.56,967.387 1868.52,974.678 1876.73,978.845C1876.69,975.657 1876.5,972.472 1876.14,969.303C1873.6,955.095 1878.56,943.137 1887.1,932.262C1901.56,913.845 1921.27,905.303 1943.85,902.47C1952.43,901.387 1961.14,901.387 1969.73,900.428C2006.89,896.868 2044.38,899.004 2080.89,906.762C2102.18,910.928 2121.6,919.262 2133.85,939.137C2134.64,940.428 2136.93,940.762 2140.27,942.387C2138.35,927.72 2144.43,916.762 2152.52,905.637C2150.03,904.036 2147.41,902.642 2144.68,901.47C2119.31,893.595 2094.1,884.803 2068.39,878.303C2030.35,868.387 1991.31,863.803 1952.18,860.303C1926.99,857.781 1901.58,858.735 1876.64,863.137C1864.89,865.344 1853.51,869.172 1842.81,874.512C1823.98,883.928 1818.68,896.428 1822.39,917.262C1822.64,918.556 1825.16,919.419 1826.45,920.536L1826.48,920.83C1824.21,926.108 1824.83,932.178 1828.06,936.866L1828.23,938.512C1828.73,938.706 1829.22,938.916 1829.71,939.141L1831.27,941.387C1831.27,940.887 1831.56,940.012 1831.27,939.928C1830.76,939.648 1830.24,939.386 1829.71,939.141L1828.89,937.97C1828.6,937.612 1828.32,937.244 1828.06,936.866L1826.48,920.845L1826.48,920.83C1826.5,920.766 1826.53,920.701 1826.56,920.637C1826.52,920.603 1826.49,920.569 1826.45,920.536ZM1820.64,1014.68C1809.02,1014.68 1801.06,1014.43 1793.1,1014.68C1737.79,1016.9 1682.39,1014.52 1627.48,1007.55C1619.56,1006.51 1611.52,1006.18 1603.64,1004.97C1580.63,1000.9 1558.66,992.239 1539.06,979.512C1528.27,972.928 1517.39,966.47 1506.56,959.97C1506.01,959.603 1505.35,959.427 1504.68,959.47C1504.1,959.47 1503.6,960.178 1502.77,960.803C1512.27,974.303 1528.43,978.762 1541.52,988.428C1529.64,1009.01 1518.56,1029.47 1506.35,1049.18C1485.52,1082.51 1464.23,1115.55 1448.81,1151.89C1447.64,1154.6 1444.64,1157.47 1448.56,1161.43C1497.1,1137.6 1548.27,1126.8 1603.35,1135.8C1615.43,1108.8 1627.1,1082.8 1638.77,1056.64C1638.77,1056.22 1639.81,1055.93 1640.39,1055.97C1640.98,1056.01 1641.43,1056.47 1642.89,1057.26C1640.77,1073.93 1638.73,1091.05 1636.39,1108.1C1634.53,1121.26 1632.39,1134.4 1629.98,1147.51C1627.85,1158.97 1628.02,1171.18 1617.48,1181.22C1629.23,1182.64 1638.68,1187.22 1648.56,1181.22C1653.6,1160.14 1654.77,1138.85 1657.27,1117.72C1659.52,1098.6 1662.68,1079.55 1665.6,1060.51C1666.02,1057.93 1667.31,1055.51 1670.81,1056.93C1671.19,1057.49 1671.47,1058.11 1671.64,1058.76C1673.53,1081.32 1675.39,1103.87 1677.23,1126.43C1677.26,1127.09 1677.54,1127.72 1678.02,1128.18C1678.48,1128.51 1679.31,1128.43 1680.85,1128.68C1688.43,1117.43 1700.43,1112.01 1713.31,1107.85C1738.31,1099.97 1763.31,1093.39 1789.56,1093.6C1797.52,1093.6 1805.48,1092.3 1813.48,1091.97C1820.77,1091.64 1828.1,1091.51 1835.39,1091.97C1852.68,1092.72 1869.98,1093.89 1887.27,1094.68C1889.27,1094.68 1892.56,1095.55 1892.6,1090.51C1885.52,1089.72 1878.43,1088.8 1871.35,1088.14C1864.27,1087.47 1858.06,1087.35 1851.48,1086.6C1844.89,1085.85 1836.77,1088.1 1830.02,1083.05C1834.18,1059.05 1816.31,1042.51 1807.85,1022.1L1820.64,1014.68ZM1443.93,1203.55L1443.93,1204.8C1446.32,1205.21 1448.73,1205.49 1451.14,1205.64C1453.14,1205.54 1455.14,1205.29 1457.1,1204.89L1456.85,1203.55L1443.93,1203.55ZM873.81,738.303C877.727,731.178 877.977,727.928 873.81,722.428L873.81,738.303ZM1894.14,1035.93C1893.63,1035.72 1893.08,1035.61 1892.52,1035.6C1892.27,1035.6 1892.14,1036.35 1891.93,1036.72C1892.45,1036.93 1893,1037.04 1893.56,1037.05C1893.85,1037.14 1894.14,1036.35 1894.14,1035.93ZM1835.31,953.47L1834.6,954.595L1835.56,954.845L1835.31,953.47ZM1473.81,1207.97C1474.27,1208.22 1474.73,1208.6 1475.18,1208.6C1475.64,1208.6 1476.1,1208.22 1476.56,1208.01C1476.1,1207.76 1475.64,1207.35 1475.18,1207.35C1474.73,1207.35 1474.27,1207.97 1473.81,1207.97Z"/>
    </g>
</svg>
